<?xml version="1.0" standalone="no"?>
<!DOCTYPE svg PUBLIC "-//W3C//DTD SVG 20010904//EN"
 "http://www.w3.org/TR/2001/REC-SVG-20010904/DTD/svg10.dtd">
<svg version="1.0" xmlns="http://www.w3.org/2000/svg"
 width="1280.000000pt" height="1228.000000pt" viewBox="0 0 1280.000000 1228.000000"
 preserveAspectRatio="xMidYMid meet">
<metadata>
Created by potrace 1.15, written by Peter Selinger 2001-2017
</metadata>
<g transform="translate(0.000000,1228.000000) scale(0.100000,-0.100000)"
fill="#000000" stroke="none">
<path d="M6235 12051 l-58 -218 -71 -7 c-39 -3 -142 -9 -229 -12 -126 -6 -156
-10 -145 -19 7 -7 92 -64 188 -126 96 -62 177 -113 178 -115 2 -1 -23 -102
-55 -223 -33 -122 -56 -220 -52 -219 4 2 82 64 174 138 92 74 171 136 176 138
4 2 92 -51 195 -118 102 -66 188 -119 190 -117 2 1 -30 89 -70 193 -40 104
-76 199 -80 211 -6 18 19 42 169 163 96 79 174 144 172 146 -1 2 -103 -2 -225
-8 -122 -7 -224 -9 -227 -7 -2 3 -39 95 -81 205 -42 109 -80 202 -84 207 -3 4
-33 -91 -65 -212z"/>
<path d="M6580 10990 c-55 -71 -104 -130 -108 -130 -4 0 -68 22 -142 49 -74
27 -146 52 -159 56 -19 6 -5 -20 73 -133 53 -77 96 -143 96 -146 0 -3 -45 -63
-100 -134 -99 -126 -111 -145 -87 -137 41 15 292 85 303 85 7 0 55 -61 106
-136 l93 -136 7 39 c4 21 7 97 7 169 l1 131 153 43 c83 24 158 46 166 50 7 4
-54 31 -149 65 l-161 59 7 168 c4 92 4 168 1 168 -3 0 -52 -58 -107 -130z"/>
<path d="M5892 11030 c-5 -14 -22 -60 -37 -104 l-29 -79 -103 6 c-57 2 -103 2
-103 -2 1 -3 37 -33 80 -66 44 -33 80 -61 80 -62 0 -1 -16 -46 -35 -99 -19
-53 -34 -99 -32 -100 2 -2 42 23 89 56 l85 60 83 -65 c46 -36 85 -64 86 -62 2
1 -10 47 -26 102 -16 55 -25 102 -21 105 4 3 46 30 92 60 l83 55 -110 5 -109
5 -32 105 c-27 92 -32 102 -41 80z"/>
<path d="M5839 10279 l-32 -82 -96 7 -96 6 50 -42 c27 -24 60 -52 73 -63 l23
-20 -36 -84 c-19 -46 -34 -85 -32 -87 2 -2 36 17 75 41 40 25 77 45 83 45 7 0
41 -25 76 -56 35 -31 65 -55 67 -53 2 2 -5 38 -15 79 -10 41 -18 82 -18 90 0
8 33 35 74 60 82 49 81 60 -1 60 -106 0 -108 1 -128 96 -10 46 -22 84 -26 84
-4 0 -22 -37 -41 -81z"/>
<path d="M6750 10217 l0 -85 -80 -27 c-44 -15 -80 -28 -80 -30 0 -2 36 -15 80
-30 l80 -27 0 -86 0 -87 48 67 c26 37 54 67 63 68 8 0 48 -11 87 -24 l72 -25
-51 73 -51 74 42 58 c24 33 47 65 53 71 9 12 -54 -3 -120 -28 -38 -14 -40 -13
-89 54 -25 34 -48 64 -50 66 -2 2 -4 -34 -4 -82z"/>
<path d="M6356 9905 c-28 -38 -51 -72 -53 -74 -1 -2 -39 8 -85 22 -45 14 -83
25 -84 24 -2 -1 20 -31 46 -67 27 -36 50 -69 50 -75 0 -5 -20 -39 -45 -74 -25
-36 -43 -66 -42 -68 2 -1 37 8 77 22 40 14 77 25 81 25 4 0 29 -30 56 -66 l48
-66 5 88 5 88 78 25 c42 14 77 28 77 32 0 3 -36 16 -80 29 l-79 23 -3 91 -3
91 -49 -70z"/>
<path d="M7075 9713 c-32 -81 -64 -163 -71 -182 -13 -32 -16 -33 -56 -28 -60
9 -338 21 -338 15 0 -2 65 -58 145 -123 122 -100 144 -122 139 -140 -4 -11
-35 -92 -70 -179 -35 -88 -62 -161 -61 -163 2 -1 73 43 160 97 86 55 161 100
168 100 6 0 74 -52 151 -116 76 -64 142 -113 145 -111 3 3 -16 85 -41 182 -25
97 -44 180 -41 185 3 4 75 52 160 106 113 72 150 100 137 105 -9 3 -82 9 -162
13 -228 11 -198 -12 -249 189 -24 95 -47 178 -51 185 -4 8 -30 -46 -65 -135z"/>
<path d="M5477 9690 c4 -58 8 -131 8 -163 l0 -59 -143 -60 c-78 -34 -141 -63
-139 -64 2 -2 69 -19 150 -37 82 -19 151 -37 154 -41 3 -3 12 -74 20 -158 7
-83 15 -153 16 -155 2 -1 39 58 82 132 46 77 86 135 95 135 8 0 79 -15 158
-34 78 -18 141 -30 140 -25 -2 4 -47 58 -100 119 -54 61 -98 115 -98 120 0 5
31 61 69 123 105 175 104 162 9 121 -46 -20 -113 -48 -150 -64 l-67 -29 -93
106 c-51 59 -99 114 -106 122 -11 13 -12 -2 -5 -89z"/>
<path d="M6695 9318 c-28 -24 -98 -85 -156 -136 l-107 -92 -177 106 c-97 58
-179 104 -181 101 -2 -2 30 -84 72 -183 42 -98 78 -184 80 -190 3 -5 -67 -73
-156 -149 -88 -76 -159 -140 -157 -141 1 -1 96 6 212 16 115 11 210 18 210 17
1 -1 37 -85 80 -187 43 -102 81 -188 84 -192 4 -4 26 80 51 187 24 107 47 200
51 206 4 7 88 19 209 30 111 10 204 20 206 21 2 2 -78 52 -177 111 -158 95
-178 111 -174 130 54 230 85 372 82 380 -1 5 -25 -11 -52 -35z"/>
<path d="M5277 8902 c-51 -71 -62 -82 -80 -76 -75 25 -167 52 -167 50 0 -1 25
-36 55 -76 30 -40 55 -78 55 -83 0 -5 -23 -41 -51 -79 -28 -38 -48 -72 -45
-75 3 -3 44 8 91 24 l85 30 60 -80 60 -81 0 101 0 101 83 27 c45 15 86 31 90
35 4 3 -33 19 -82 34 l-90 27 -3 102 -3 102 -58 -83z"/>
<path d="M5560 8843 c0 -4 11 -44 25 -88 14 -44 25 -83 25 -86 0 -4 -36 -32
-80 -62 l-80 -54 99 -7 99 -7 22 -82 c13 -45 26 -86 30 -90 4 -5 22 33 40 84
l33 91 101 -6 c83 -5 98 -4 86 6 -9 7 -44 35 -78 61 -34 27 -62 53 -62 58 0 6
13 49 30 95 17 49 25 82 17 78 -6 -4 -44 -29 -82 -55 l-71 -47 -49 40 c-74 59
-105 80 -105 71z"/>
<path d="M7160 8620 c0 -161 -2 -180 -17 -188 -10 -5 -89 -30 -175 -57 -87
-27 -155 -52 -150 -56 4 -3 72 -28 152 -54 80 -26 148 -51 153 -54 5 -6 -274
-217 -303 -229 -4 -1 -84 54 -178 122 -95 69 -172 122 -172 118 0 -5 29 -97
64 -205 l64 -197 -176 -128 -176 -127 218 -5 219 -5 53 -165 c29 -90 51 -166
49 -168 -2 -2 -51 22 -110 53 -58 32 -108 55 -111 52 -3 -3 42 -100 100 -216
58 -116 106 -215 106 -220 0 -5 -79 -87 -175 -182 -96 -95 -174 -173 -172
-175 1 -1 101 13 222 32 121 18 232 33 247 34 26 0 34 -13 140 -222 l112 -223
14 90 c8 50 16 92 18 94 3 3 212 -86 222 -95 2 -1 -3 -73 -12 -160 -9 -86 -15
-159 -13 -161 2 -2 47 45 100 105 53 60 102 114 110 120 11 9 44 -2 158 -53
79 -35 145 -62 147 -60 2 2 -33 65 -77 141 -79 134 -80 139 -63 158 10 12 58
65 106 119 49 54 86 100 84 103 -3 3 -68 -9 -144 -26 -76 -16 -146 -30 -155
-30 -11 0 -38 35 -73 96 -31 52 -56 96 -56 98 0 2 48 9 106 17 93 11 103 15
87 26 -10 8 -106 59 -213 114 -107 56 -199 104 -203 108 -4 4 10 115 32 246
22 132 38 241 36 243 -2 2 -83 -74 -180 -169 l-176 -173 -82 44 c-45 24 -83
44 -84 44 -1 1 24 83 57 181 l58 180 217 5 217 5 -171 124 c-94 69 -171 129
-171 134 0 17 104 337 110 337 3 0 4 -46 2 -102 -2 -57 -2 -130 0 -163 l3 -60
104 140 c57 77 106 143 110 147 4 5 81 -17 171 -47 91 -30 168 -54 173 -52 6
2 -40 70 -169 248 l-33 45 109 147 c61 81 106 147 101 147 -5 0 -81 -22 -169
-50 -88 -27 -164 -50 -169 -50 -5 0 -56 65 -113 145 -57 80 -105 145 -107 145
-1 0 -3 -81 -3 -180z m275 -2049 c-6 -61 -14 -113 -17 -117 -9 -8 -221 -54
-227 -49 -6 7 31 229 41 240 9 11 120 31 178 34 l36 1 -11 -109z"/>
<path d="M5880 8425 c1 -5 7 -57 15 -115 8 -58 15 -121 15 -141 l0 -36 -130
-59 c-71 -33 -129 -61 -130 -64 0 -3 42 -13 94 -23 52 -9 117 -22 144 -28 l50
-10 12 -102 c6 -56 15 -122 19 -147 l7 -45 69 124 c39 68 75 126 82 128 6 3
71 -7 143 -22 73 -15 133 -25 135 -23 2 2 -41 51 -95 109 l-98 105 69 123 c38
68 67 126 65 129 -3 2 -62 -22 -132 -54 l-127 -58 -104 109 c-56 61 -103 106
-103 100z"/>
<path d="M5002 8188 c10 -122 14 -225 10 -228 -4 -4 -92 -41 -197 -84 -104
-43 -193 -81 -198 -85 -4 -4 85 -29 198 -56 112 -27 210 -52 216 -56 8 -4 18
-83 29 -218 9 -116 19 -213 22 -216 3 -3 56 78 119 181 l113 186 37 -6 c81
-13 80 -12 202 -248 l116 -223 -167 -167 c-92 -93 -174 -168 -182 -168 -9 0
-25 6 -35 14 -18 13 -18 19 -6 127 7 63 15 127 18 142 5 24 -11 11 -96 -76
l-102 -105 -126 59 c-69 33 -127 58 -128 57 -2 -2 26 -55 61 -118 35 -63 64
-120 64 -126 0 -6 -43 -56 -96 -112 -53 -56 -92 -102 -88 -102 4 0 68 12 141
26 74 14 136 24 137 22 2 -1 32 -56 67 -120 35 -65 66 -118 70 -118 3 0 12 53
19 118 7 64 16 126 20 138 7 18 27 24 139 44 72 13 131 27 131 30 0 3 -31 21
-70 40 -38 18 -68 35 -66 37 4 5 404 73 427 73 10 0 49 -63 112 -186 53 -102
97 -187 97 -190 0 -2 -13 -4 -28 -4 -16 0 -32 -3 -35 -7 -4 -3 44 -37 107 -74
l114 -69 -24 -102 c-13 -57 -26 -113 -29 -125 -5 -22 -6 -22 -125 20 l-121 42
3 188 c2 103 1 187 -2 187 -3 -1 -54 -66 -114 -146 -60 -79 -112 -144 -115
-144 -3 0 -83 27 -176 59 -93 33 -171 59 -172 57 -2 -1 45 -71 102 -155 l106
-152 -94 -122 c-81 -105 -102 -126 -147 -147 l-52 -25 -80 85 -79 85 6 -80 c3
-44 8 -96 11 -115 l6 -35 -91 -39 c-50 -22 -93 -37 -96 -35 -2 3 -22 83 -44
179 -36 161 -38 176 -22 188 9 8 111 70 226 138 116 68 206 124 200 124 -32 1
-509 50 -512 53 -2 2 -28 116 -59 253 -30 136 -56 249 -57 251 -2 1 -49 -106
-107 -238 l-104 -240 -45 6 c-89 11 -465 45 -468 42 -1 -2 83 -79 187 -171
105 -92 190 -173 190 -179 0 -7 -45 -115 -100 -241 -55 -126 -99 -230 -98
-231 2 -2 100 55 218 126 118 70 220 128 227 128 7 1 96 -73 199 -164 102 -92
189 -164 191 -161 3 3 0 26 -6 52 -7 25 -10 48 -9 50 4 3 177 -34 188 -41 5
-3 11 -47 15 -97 11 -142 13 -143 78 -30 l57 99 108 -23 c59 -13 111 -24 116
-24 5 0 -27 39 -70 86 l-78 87 34 64 c19 36 42 68 50 73 19 9 224 70 238 70 5
0 56 -68 113 -151 l104 -151 10 188 10 188 172 50 c95 28 173 54 173 57 0 3
-18 12 -40 19 -22 7 -39 17 -38 20 3 8 177 160 183 160 2 0 52 -29 112 -65 59
-36 111 -65 115 -65 3 0 -16 51 -43 114 -27 63 -49 120 -48 128 0 7 43 49 94
93 52 44 95 82 95 85 0 3 -57 1 -127 -6 -71 -6 -131 -8 -135 -5 -4 3 -28 56
-53 116 -26 61 -50 113 -54 118 -4 4 -20 -51 -35 -122 -32 -145 -28 -141 -123
-141 -38 0 -51 4 -48 13 2 6 16 91 30 187 14 96 28 187 31 201 5 26 8 26 232
63 125 20 238 39 252 42 20 5 -18 27 -202 120 -126 63 -228 120 -228 127 0 6
16 116 35 242 19 127 35 234 35 240 0 5 -81 -71 -180 -170 l-180 -180 -201
100 c-110 55 -202 103 -205 106 -2 3 56 -9 129 -26 73 -18 134 -31 135 -30 2
2 -59 76 -135 165 -76 88 -139 166 -141 173 -1 7 49 95 111 197 63 102 113
186 112 188 -1 1 -85 -32 -186 -74 -101 -42 -194 -80 -206 -85 -21 -8 -37 9
-169 161 -80 94 -147 170 -148 170 -1 0 6 -100 16 -222z"/>
<path d="M10946 7775 c-33 -77 -63 -144 -67 -150 -6 -5 -65 -5 -161 3 -84 6
-154 10 -155 8 -2 -2 50 -49 116 -106 l120 -102 -15 -36 c-63 -149 -105 -255
-102 -257 2 -2 61 33 133 76 71 43 133 79 137 79 4 0 60 -46 123 -101 64 -56
118 -100 120 -97 2 2 -12 68 -31 147 -19 79 -34 148 -34 155 1 6 61 47 135 91
73 44 132 81 131 83 -2 1 -71 8 -155 16 -83 7 -154 15 -157 19 -4 3 -23 75
-43 159 l-36 153 -59 -140z"/>
<path d="M7945 7753 l-120 -126 -160 81 c-87 45 -160 80 -161 79 -2 -1 34 -74
78 -161 l80 -159 -128 -128 c-71 -71 -127 -129 -124 -129 3 0 84 14 180 29 96
16 175 29 176 28 1 -1 39 -74 85 -162 46 -88 85 -153 86 -145 2 8 14 86 27
174 14 87 28 162 33 166 4 4 82 20 173 34 90 15 166 29 168 31 2 2 -66 39
-152 82 -133 66 -156 81 -156 101 0 19 29 216 45 305 2 15 1 27 -3 27 -4 0
-61 -57 -127 -127z"/>
<path d="M1168 7684 l-3 -187 -160 -54 c-88 -29 -167 -56 -175 -59 -9 -4 59
-31 160 -64 l175 -58 0 -154 0 -153 -30 -3 c-30 -3 -32 0 -65 80 l-34 83 -13
-45 c-6 -25 -17 -64 -22 -86 -11 -39 -13 -42 -57 -48 -26 -3 -64 -6 -85 -6
-22 0 -39 -3 -39 -7 0 -5 28 -24 61 -43 33 -19 65 -40 71 -47 7 -9 5 -34 -7
-82 -9 -39 -15 -75 -13 -81 1 -5 32 15 66 45 l64 55 36 -22 c21 -12 53 -32 72
-45 19 -13 36 -19 38 -15 1 5 -11 41 -28 80 -16 39 -30 73 -30 75 0 3 30 29
66 59 63 51 65 53 40 58 -26 5 -26 6 54 117 l81 112 47 -14 c26 -8 101 -33
167 -55 65 -22 125 -40 132 -40 7 0 -37 67 -98 150 l-109 150 105 146 c59 80
104 148 101 151 -3 4 -239 -70 -332 -104 -7 -2 -62 64 -123 147 l-111 152 -2
-188z"/>
<path d="M12541 7805 c-7 -16 -22 -56 -34 -89 l-22 -58 -95 6 -95 6 30 -28
c17 -15 49 -43 73 -62 l42 -35 -34 -85 c-19 -47 -33 -86 -31 -88 1 -2 38 20
80 48 67 43 80 48 94 37 9 -7 42 -35 74 -61 31 -27 57 -45 57 -40 0 5 -9 43
-20 84 -11 41 -20 80 -20 87 0 6 34 33 76 60 l77 48 -49 7 c-27 3 -70 7 -95 7
-45 1 -47 3 -53 34 -3 17 -15 59 -25 92 l-18 60 -12 -30z"/>
<path d="M245 7712 l-28 -99 -105 -9 -105 -9 86 -57 86 -58 -14 -47 c-7 -27
-20 -72 -29 -101 -17 -61 -19 -61 75 15 36 29 72 53 78 53 7 0 46 -23 87 -51
42 -28 78 -49 80 -46 3 2 -11 45 -29 95 l-35 91 79 61 c44 34 79 64 79 66 0 3
-46 4 -102 3 l-101 -3 -34 94 c-19 52 -36 96 -37 98 -2 1 -16 -42 -31 -96z"/>
<path d="M3604 7750 c-11 -19 -33 -56 -47 -81 l-26 -46 -86 17 c-47 10 -85 15
-85 13 0 -3 25 -32 55 -66 30 -33 55 -64 55 -69 0 -5 -18 -40 -40 -79 -22 -39
-40 -72 -40 -74 0 -2 34 12 76 31 41 19 79 34 84 34 4 0 36 -28 70 -62 l62
-63 -6 48 c-3 26 -9 66 -12 90 l-6 44 76 33 c42 18 79 36 81 41 3 4 -28 13
-67 19 -40 7 -80 16 -88 20 -10 6 -18 36 -25 97 l-10 88 -21 -35z"/>
<path d="M9308 7693 l-24 -78 -84 -5 -85 -5 67 -45 c37 -25 68 -52 68 -60 0
-8 -9 -45 -19 -83 -11 -37 -18 -67 -15 -67 2 0 33 22 67 50 l64 49 66 -44 c36
-25 69 -45 71 -45 3 0 -8 36 -24 79 l-29 80 64 48 c35 26 64 50 65 53 0 3 -37
4 -83 2 l-84 -3 -27 75 c-16 42 -30 76 -31 76 -2 0 -14 -35 -27 -77z"/>
<path d="M11600 7740 c0 -8 7 -84 16 -168 10 -88 13 -157 8 -162 -5 -5 -72
-36 -149 -70 -77 -34 -144 -65 -148 -69 -4 -4 66 -23 155 -41 90 -18 166 -36
170 -39 3 -3 14 -81 24 -173 10 -93 20 -168 23 -168 4 1 43 68 89 149 l84 149
161 -34 c89 -19 165 -33 170 -31 4 1 -44 59 -107 128 l-114 126 84 148 c46 81
83 150 81 152 -2 1 -73 -28 -158 -67 l-154 -69 -65 72 c-119 132 -170 182
-170 167z"/>
<path d="M8682 7704 c-6 -21 -15 -62 -22 -90 l-11 -52 -90 -7 c-49 -3 -87 -10
-84 -15 2 -4 36 -26 75 -49 38 -23 70 -45 70 -49 0 -4 -9 -44 -19 -90 -22 -94
-27 -93 68 -10 30 26 57 46 60 44 3 -2 37 -22 75 -45 37 -23 70 -40 72 -38 2
2 -11 39 -30 83 l-35 79 51 45 c29 25 61 53 72 63 21 18 20 18 -29 13 -27 -3
-70 -7 -95 -8 l-44 -3 -37 84 -37 84 -10 -39z"/>
<path d="M10255 7645 l-109 -92 -81 50 c-44 27 -97 61 -118 74 -22 14 -41 23
-43 20 -2 -2 18 -58 46 -125 27 -66 50 -125 50 -131 0 -5 -47 -49 -105 -97
-58 -48 -105 -89 -105 -91 0 -4 241 6 274 11 7 1 57 -110 106 -239 11 -28 14
-22 49 110 l36 140 105 8 c58 4 122 11 143 15 l38 7 -111 70 c-62 39 -116 72
-121 75 -4 3 8 68 27 144 19 76 34 140 32 141 -2 1 -52 -39 -113 -90z"/>
<path d="M2186 7715 c-3 -9 -6 -54 -6 -99 0 -46 -3 -104 -6 -128 l-6 -46 -140
-37 c-76 -21 -135 -41 -131 -45 4 -4 31 -15 58 -25 28 -10 86 -31 129 -48 l79
-30 -6 -148 c-3 -82 -4 -149 -3 -149 3 0 164 203 178 223 4 6 56 -8 135 -38
70 -26 134 -50 141 -53 7 -2 -24 52 -69 121 l-81 126 91 116 c51 63 88 115 84
115 -4 0 -64 -16 -133 -35 -69 -19 -131 -35 -137 -35 -7 0 -45 48 -84 108 -86
129 -85 127 -93 107z"/>
<path d="M3962 7719 c18 -46 118 -373 118 -384 0 -8 -74 -67 -165 -132 l-166
-118 43 -7 c24 -3 118 -7 209 -7 l165 -1 65 -202 65 -203 68 203 69 203 208
-3 c115 -2 208 0 207 4 -2 4 -76 61 -165 127 -90 66 -163 122 -163 124 0 1 29
90 65 197 36 106 63 195 61 197 -2 3 -78 -49 -167 -113 -90 -65 -169 -117
-174 -117 -6 0 -80 51 -165 114 -183 135 -185 137 -178 118z"/>
<path d="M3040 7488 c-35 -79 -69 -158 -77 -175 -16 -39 -5 -38 -214 -17 -88
8 -165 14 -173 12 -7 -2 51 -60 130 -130 l143 -128 -65 -147 c-101 -229 -96
-215 -76 -204 9 5 87 50 172 100 l154 91 36 -34 c66 -62 253 -226 256 -224 1
2 -15 81 -37 177 -21 96 -39 181 -39 191 0 11 55 48 160 110 88 51 160 96 160
100 0 3 -84 14 -187 24 -103 9 -189 18 -190 19 -1 2 -20 85 -42 186 -22 101
-42 186 -44 188 -3 2 -33 -61 -67 -139z"/>
<path d="M9687 7317 c-30 -47 -55 -77 -65 -77 -9 0 -50 9 -89 19 -40 11 -73
16 -73 12 0 -3 19 -29 43 -56 76 -90 74 -75 23 -160 -25 -42 -46 -78 -46 -80
0 -2 38 12 85 32 l85 36 38 -44 c20 -24 47 -55 60 -69 l23 -25 -5 92 -5 92 77
32 c42 17 81 34 87 37 5 4 -31 15 -80 27 l-90 20 -10 95 -10 95 -48 -78z"/>
<path d="M9220 7071 c-58 -90 -107 -168 -110 -172 -3 -4 -88 15 -190 42 -102
27 -190 48 -196 47 -6 -2 46 -72 116 -157 118 -142 127 -156 115 -175 -146
-228 -203 -321 -201 -324 2 -2 88 31 190 72 l186 74 128 -154 127 -155 3 43
c2 23 -1 112 -7 197 -6 85 -8 158 -4 162 5 4 87 37 183 75 96 37 178 70 182
74 4 3 -59 23 -140 44 -81 20 -170 44 -198 52 l-51 15 -8 157 c-4 86 -10 177
-14 202 l-6 45 -105 -164z"/>
<path d="M8070 7077 l0 -143 -132 -43 c-75 -25 -126 -47 -118 -50 8 -3 69 -24
135 -46 l120 -40 5 -138 5 -138 74 103 c41 57 78 107 82 112 4 4 64 -11 134
-34 69 -23 129 -40 132 -37 4 4 -84 131 -148 213 -5 6 23 54 72 123 45 62 79
114 78 115 -2 2 -62 -16 -134 -39 -71 -24 -132 -40 -135 -36 -50 70 -163 221
-166 221 -2 0 -4 -64 -4 -143z"/>
<path d="M10934 7135 c11 -61 37 -277 34 -280 -2 -1 -63 -31 -137 -66 -102
-48 -129 -65 -115 -71 11 -4 71 -16 134 -28 63 -12 122 -23 131 -26 13 -3 20
-36 34 -154 10 -83 19 -150 21 -150 1 0 33 55 70 123 37 67 71 127 76 133 6 8
39 5 121 -11 61 -13 130 -26 151 -30 l39 -7 -107 115 -107 115 75 136 c41 75
73 136 71 136 -1 0 -65 -30 -141 -66 l-139 -65 -108 113 c-93 98 -107 109
-103 83z"/>
<path d="M10357 6895 c-71 -80 -133 -145 -138 -145 -6 0 -89 34 -186 76 -96
42 -176 74 -178 72 -2 -2 41 -79 96 -172 54 -93 99 -171 99 -173 0 -2 -58 -70
-130 -151 -71 -80 -128 -147 -126 -150 3 -2 91 15 196 38 106 23 193 40 194
38 2 -2 48 -81 104 -176 111 -192 104 -189 117 -49 6 57 9 67 23 63 10 -2 44
-7 77 -11 120 -12 110 -3 130 -120 10 -58 21 -105 24 -105 3 1 26 44 51 97
l45 95 50 -6 c27 -3 77 -9 110 -12 l60 -5 -79 75 -80 75 47 100 c25 56 44 101
41 101 -3 0 -47 -23 -98 -50 l-93 -50 -44 39 c-50 45 -61 36 85 69 l79 17
-184 82 -184 81 3 68 c1 38 8 129 15 202 7 72 11 132 8 132 -3 0 -64 -66 -134
-145z m217 -535 c4 -28 9 -56 12 -64 4 -9 -23 -29 -81 -61 -48 -26 -88 -45
-90 -43 -2 1 1 37 5 78 5 41 9 85 10 96 0 18 9 24 48 32 88 18 89 18 96 -38z"/>
<path d="M1846 6876 c-31 -66 -58 -121 -60 -123 -2 -2 -54 3 -115 11 -62 9
-120 16 -130 16 -12 0 14 -31 77 -93 l94 -93 -57 -113 c-31 -62 -54 -115 -51
-118 2 -3 55 23 117 56 l113 62 91 -91 c50 -49 94 -90 98 -90 5 0 6 12 3 28
-4 15 -15 73 -25 130 l-18 102 119 64 c136 72 139 65 -40 87 -60 7 -106 17
-108 24 -3 7 -15 68 -28 136 l-23 124 -57 -119z"/>
<path d="M3810 6935 c-1 -39 -23 -141 -32 -146 -6 -4 -32 -10 -57 -14 -91 -12
-91 -15 -13 -51 58 -27 72 -37 69 -51 -3 -10 -8 -45 -11 -78 l-6 -60 53 57 53
57 64 -30 c34 -16 65 -28 67 -25 3 2 -10 31 -28 64 l-33 59 47 53 c26 29 45
55 43 58 -3 2 -35 -1 -71 -8 -36 -7 -67 -11 -69 -9 -2 2 -19 33 -39 69 -20 36
-37 61 -37 55z"/>
<path d="M8541 6503 c-79 -112 -148 -203 -153 -203 -5 0 -111 31 -235 70 -125
38 -228 68 -230 67 -2 -2 62 -91 142 -197 80 -107 144 -199 141 -206 -2 -6
-66 -98 -140 -203 -75 -105 -136 -193 -136 -196 0 -2 106 32 236 76 129 45
236 80 238 78 2 -2 68 -92 147 -199 l144 -195 5 250 5 250 222 75 c122 41 224
78 228 82 3 3 -40 20 -97 38 -57 17 -163 50 -235 72 l-133 41 -2 251 -3 251
-144 -202z"/>
<path d="M3018 6632 c-7 -10 -32 -40 -55 -66 l-41 -47 -73 31 c-40 17 -76 29
-80 28 -4 -2 12 -35 36 -74 l43 -71 -40 -44 c-24 -27 -32 -33 -22 -16 9 15 15
29 13 31 -2 2 -75 -29 -162 -69 l-159 -73 -116 128 c-65 71 -120 129 -123 129
-3 1 3 -73 14 -164 10 -91 17 -172 14 -178 -3 -7 -73 -44 -156 -82 -83 -37
-151 -71 -151 -74 0 -3 76 -21 168 -39 92 -19 168 -35 169 -36 1 -1 10 -69 18
-152 9 -82 20 -159 23 -172 6 -19 20 0 91 125 46 81 86 150 87 152 3 3 295
-53 339 -66 12 -3 -15 32 -65 87 -47 51 -102 112 -123 136 l-38 43 56 99 55
98 72 17 c40 10 78 17 85 17 6 0 31 -31 54 -70 49 -79 59 -76 59 17 0 62 15
93 45 93 7 0 54 -59 105 -130 l91 -130 -37 -53 c-21 -28 -71 -96 -111 -149
-41 -54 -68 -98 -62 -98 10 0 139 40 306 95 l43 14 110 -156 110 -155 1 178
c1 99 1 183 0 187 -2 11 46 29 204 77 77 24 143 46 147 49 4 4 -71 33 -167 66
l-175 59 0 189 0 190 -112 -149 c-61 -82 -112 -150 -113 -151 -1 -2 -60 17
-131 40 -118 40 -126 45 -101 53 28 9 26 11 -53 43 l-82 34 7 89 c3 48 4 88 1
88 -3 0 -11 -8 -18 -18z"/>
<path d="M9615 6241 l-18 -190 -66 -14 c-36 -8 -115 -25 -176 -37 -60 -13
-114 -26 -118 -30 -4 -3 66 -39 155 -79 90 -40 166 -76 170 -80 4 -3 -2 -89
-13 -190 -11 -101 -19 -185 -17 -186 2 -2 59 59 128 136 69 76 128 139 132
139 3 0 82 -34 174 -75 92 -42 168 -74 170 -73 1 2 -40 77 -92 166 l-94 164
125 138 c69 76 125 140 125 143 0 3 -82 -12 -182 -33 -101 -21 -186 -35 -190
-32 -3 4 -45 75 -93 157 -47 83 -89 153 -94 158 -4 4 -16 -78 -26 -182z"/>
<path d="M6653 6313 c-12 -38 -43 -134 -68 -215 l-46 -148 -232 -2 -232 -3
180 -129 c99 -70 183 -131 188 -135 4 -4 -24 -105 -62 -224 -37 -119 -66 -217
-62 -217 3 0 85 59 181 130 96 71 180 130 186 130 6 0 91 -58 190 -129 98 -71
180 -126 182 -122 1 3 -29 100 -68 215 -38 115 -68 212 -65 216 2 3 85 66 185
139 99 73 180 135 180 137 0 3 -104 4 -232 2 l-231 -3 -71 213 c-39 116 -73
212 -76 212 -3 0 -16 -30 -27 -67z"/>
<path d="M7620 5889 l-85 -91 -117 55 c-65 31 -118 54 -118 53 0 -1 25 -49 56
-107 30 -57 56 -107 57 -111 1 -4 -35 -48 -81 -97 -59 -64 -78 -91 -65 -91 10
0 65 9 123 20 58 11 106 20 107 20 12 0 -164 -409 -186 -433 -4 -4 -124 6
-267 22 -142 16 -260 28 -261 27 -1 -1 75 -72 170 -158 95 -86 182 -167 195
-180 l22 -25 -106 -232 c-58 -128 -103 -235 -101 -238 3 -2 49 21 102 52 54
30 98 54 99 53 1 -2 0 -67 -2 -145 l-4 -143 -56 -16 c-32 -9 -97 -28 -147 -43
l-89 -27 139 -51 140 -51 -2 -153 c-2 -124 -1 -151 10 -139 6 9 48 62 91 118
43 56 85 102 92 102 7 0 67 -20 134 -45 67 -25 125 -45 131 -45 5 0 -27 54
-71 120 -44 66 -80 122 -80 125 0 4 37 54 83 113 46 59 86 112 90 119 4 6 -58
-8 -138 -32 l-146 -43 -80 120 c-45 66 -77 124 -72 128 10 11 221 130 229 130
3 0 91 -79 196 -175 105 -97 192 -174 194 -172 2 1 -20 114 -47 250 -28 137
-49 253 -46 260 2 7 104 68 227 137 202 114 219 126 193 132 -15 4 -131 19
-258 33 -126 15 -231 28 -233 30 -5 5 -70 315 -66 315 2 0 11 -14 19 -31 9
-17 18 -29 21 -27 2 3 11 56 20 119 9 63 19 117 23 121 3 4 51 14 106 23 156
25 155 24 27 85 -67 32 -112 59 -112 68 0 8 7 62 16 119 8 58 14 109 12 114
-2 5 -41 -32 -88 -82z"/>
<path d="M3715 5728 c-10 -51 -22 -100 -26 -109 -6 -12 -29 -18 -81 -23 -154
-14 -152 -12 -46 -70 107 -59 104 -52 75 -199 l-15 -79 32 28 c17 16 54 50 82
77 l51 49 92 -52 c51 -29 94 -50 97 -48 2 3 -16 47 -41 99 l-45 94 82 78 83
77 -55 -6 c-30 -3 -81 -9 -112 -13 l-57 -8 -45 99 c-25 54 -48 98 -50 98 -2 0
-11 -42 -21 -92z"/>
<path d="M9223 5695 c-78 -63 -146 -115 -152 -115 -5 0 -79 45 -163 100 -84
55 -154 96 -156 92 -1 -4 27 -83 63 -176 36 -92 65 -171 65 -174 0 -4 -67 -61
-149 -127 -82 -66 -148 -121 -147 -122 1 -2 87 2 191 8 103 6 191 7 195 2 5
-4 36 -82 71 -173 34 -91 65 -168 68 -172 4 -4 28 76 55 177 35 132 53 186 65
189 9 3 96 8 194 12 97 4 177 9 177 13 -1 3 -71 51 -156 105 -86 55 -158 104
-160 110 -2 6 18 91 45 189 26 97 45 177 42 177 -4 0 -70 -52 -148 -115z"/>
<path d="M2956 5665 l-17 -74 -42 -5 c-23 -4 -60 -7 -82 -8 l-39 -3 67 -44
c57 -37 66 -47 61 -65 -18 -54 -33 -120 -29 -124 3 -3 29 16 59 42 30 25 57
46 61 46 3 0 33 -18 66 -41 33 -22 62 -39 65 -37 2 3 -7 32 -21 66 -25 63 -31
92 -17 92 4 1 30 21 57 46 l50 45 -79 -3 -80 -3 -25 67 c-15 36 -29 69 -32 72
-3 3 -13 -28 -23 -69z"/>
<path d="M8195 5531 c-38 -50 -70 -91 -70 -91 -1 0 -49 17 -108 39 -59 21
-107 36 -107 33 0 -3 27 -45 60 -93 33 -48 60 -90 60 -94 0 -4 -30 -45 -66
-92 -36 -47 -63 -87 -61 -90 3 -2 50 9 105 26 54 17 102 31 105 31 4 0 36 -43
71 -96 l64 -96 7 99 c3 54 7 107 8 118 2 16 21 25 110 50 59 16 107 33 107 37
0 5 -5 8 -12 8 -6 0 -55 16 -107 35 l-96 35 3 88 c7 157 7 156 -73 53z"/>
<path d="M5546 5468 c-3 -13 -6 -43 -6 -68 0 -25 -3 -62 -6 -82 l-6 -37 -94
-22 c-52 -13 -94 -26 -94 -29 0 -3 39 -22 88 -42 82 -33 87 -37 90 -67 2 -18
-13 -85 -33 -149 -20 -64 -40 -128 -44 -142 -7 -24 -11 -25 -97 -28 -163 -5
-159 1 -56 -70 50 -34 93 -66 95 -70 3 -4 -8 -47 -24 -96 -47 -150 -51 -145
54 -66 52 38 97 70 100 70 4 0 48 -29 98 -65 51 -36 94 -64 95 -62 1 1 -15 52
-36 113 l-38 110 94 70 93 69 -119 3 -118 3 -26 76 -26 76 38 45 c20 25 46 56
57 69 l20 24 94 -41 c52 -22 96 -39 97 -37 2 1 -22 42 -51 90 l-55 88 65 76
c36 42 63 78 61 80 -2 2 -41 -5 -86 -16 -46 -12 -90 -21 -99 -21 -9 0 -37 36
-67 86 -44 73 -52 82 -58 62z"/>
<path d="M4289 5254 c-74 -114 -139 -209 -146 -211 -6 -2 -105 21 -220 52
-279 76 -273 74 -273 69 0 -2 68 -89 151 -192 84 -103 155 -192 160 -198 5 -6
-47 -96 -131 -224 -76 -118 -138 -216 -136 -217 1 -1 107 38 235 87 128 50
236 90 240 90 4 0 78 -88 165 -196 87 -107 160 -194 162 -191 2 2 -1 115 -8
251 -7 150 -8 250 -2 255 5 5 114 48 242 97 128 49 228 90 222 92 -6 2 -117
32 -246 67 -130 35 -238 65 -240 68 -3 3 -11 116 -18 251 -7 136 -16 249 -18
252 -3 2 -65 -88 -139 -202z"/>
<path d="M3376 5335 c-4 -22 -12 -61 -17 -87 l-10 -47 -67 -6 c-101 -11 -103
-17 -23 -59 39 -20 71 -38 71 -39 0 -1 -7 -37 -15 -80 -8 -43 -15 -82 -15 -85
0 -4 27 20 61 53 l60 60 71 -38 c39 -21 72 -36 74 -34 2 2 -11 36 -28 76 l-33
73 58 52 c31 28 57 54 57 57 0 3 -24 2 -52 -2 -111 -16 -109 -17 -149 69 l-36
77 -7 -40z"/>
<path d="M4771 5293 c10 -43 18 -85 19 -93 0 -8 -35 -35 -78 -60 l-77 -45 40
-7 c22 -4 61 -7 87 -7 55 -1 60 -7 78 -96 20 -94 24 -94 61 -5 l34 82 94 -7
95 -6 -53 48 c-30 26 -60 52 -67 56 -20 11 -18 26 16 105 17 39 30 74 30 77 0
4 -15 -2 -32 -12 -18 -11 -54 -31 -79 -46 l-45 -27 -55 48 c-94 82 -89 83 -68
-5z"/>
<path d="M6080 5362 c0 -4 20 -81 45 -171 25 -89 45 -168 45 -176 0 -7 -71
-59 -157 -116 l-158 -104 90 -6 c50 -4 133 -7 186 -8 64 -1 100 -5 106 -13 6
-7 29 -85 53 -173 24 -88 46 -166 50 -173 4 -8 34 58 72 160 l65 173 194 -3
c106 -2 191 -1 189 1 -3 3 -68 55 -145 117 -77 61 -141 116 -143 121 -2 5 13
53 33 106 85 224 94 254 82 247 -6 -5 -79 -52 -161 -106 -130 -85 -151 -96
-165 -85 -31 27 -256 203 -268 211 -7 4 -13 3 -13 -2z"/>
<path d="M8406 5048 c-4 -23 -11 -101 -17 -173 -5 -71 -12 -131 -14 -133 -2
-2 -76 -21 -165 -42 -89 -21 -163 -40 -165 -42 -3 -2 64 -33 148 -67 83 -35
156 -66 160 -70 4 -5 1 -84 -7 -177 -8 -93 -13 -170 -12 -172 2 -1 53 56 115
128 61 71 116 130 120 130 5 0 78 -29 162 -65 84 -35 154 -63 155 -62 2 2 -38
69 -87 151 -90 147 -90 149 -71 170 97 110 204 238 201 241 -3 2 -78 -14 -169
-35 -91 -21 -166 -37 -167 -36 -2 2 -43 69 -92 150 l-89 148 -6 -44z"/>
<path d="M4695 4588 c14 -40 35 -108 49 -150 l24 -78 -124 -87 c-68 -49 -124
-90 -124 -93 0 -3 10 -6 23 -6 12 0 81 -1 154 -2 l132 -2 46 -145 c25 -80 47
-145 50 -145 2 0 25 65 51 145 l48 145 156 2 155 3 -120 89 c-66 49 -122 90
-124 92 -1 1 18 66 44 144 26 78 45 143 43 146 -3 2 -58 -34 -124 -81 -65 -47
-122 -85 -126 -85 -4 0 -61 41 -127 90 -67 50 -123 90 -125 90 -3 0 6 -33 19
-72z"/>
<path d="M5884 4379 l-111 -111 -135 71 c-74 39 -138 71 -141 71 -4 0 25 -64
64 -142 l72 -143 -112 -105 c-61 -58 -111 -108 -111 -111 0 -3 64 5 143 17 78
13 148 23 154 23 7 1 44 -62 83 -139 39 -77 72 -140 74 -140 2 0 14 68 27 151
21 130 27 152 44 159 11 4 80 16 153 26 72 10 132 22 132 26 0 4 -58 37 -129
73 -71 35 -132 68 -135 73 -2 4 6 75 20 156 14 82 23 150 21 152 -1 2 -53 -47
-113 -107z"/>
<path d="M6645 4334 c-71 -62 -133 -114 -137 -114 -4 0 -74 40 -155 89 -81 49
-149 88 -151 86 -2 -1 26 -73 62 -158 37 -86 66 -161 66 -166 0 -6 -57 -60
-127 -121 -71 -62 -129 -115 -131 -118 -1 -4 76 0 170 9 151 14 175 14 185 1
7 -8 40 -81 74 -163 35 -82 66 -146 70 -141 3 4 23 82 44 173 l38 167 161 12
c88 7 169 16 178 19 13 5 -24 32 -132 96 -102 61 -150 95 -150 107 0 10 16 86
36 169 19 83 34 155 32 159 -2 5 -61 -43 -133 -106z"/>
<path d="M8076 4286 c-54 -75 -101 -138 -105 -140 -3 -2 -79 20 -168 49 -89
29 -159 47 -156 41 4 -6 49 -68 100 -138 51 -70 93 -130 93 -133 0 -3 -42 -63
-93 -133 -51 -70 -96 -132 -100 -138 -4 -7 41 4 101 23 59 19 133 43 165 53
l58 18 67 -91 c38 -51 83 -114 102 -141 l35 -48 3 175 2 176 160 51 c88 28
160 52 160 55 0 2 -72 27 -160 56 l-160 53 -2 174 -3 174 -99 -136z"/>
<path d="M8915 4152 l-77 -149 -132 22 c-72 12 -149 25 -171 28 l-39 6 123
-123 122 -122 -75 -146 c-42 -79 -76 -148 -76 -152 0 -4 67 28 150 71 l150 78
120 -120 c66 -66 120 -114 120 -107 0 11 -33 230 -45 295 -4 26 1 30 148 104
83 42 148 77 142 79 -5 2 -79 15 -163 28 -85 13 -156 27 -159 29 -2 3 -16 76
-29 163 -14 87 -27 160 -28 162 -2 2 -39 -64 -81 -146z"/>
<path d="M3590 4224 c0 -6 14 -78 30 -159 17 -82 29 -149 28 -151 -2 -1 -65
-37 -140 -79 -76 -42 -138 -78 -138 -80 0 -1 72 -10 159 -20 l159 -18 10 -41
c6 -23 20 -94 33 -159 13 -64 26 -114 29 -110 4 5 33 67 65 138 32 72 61 134
66 139 6 7 266 -18 275 -27 2 -2 -30 -12 -71 -22 -41 -11 -75 -22 -75 -25 0
-4 35 -20 78 -36 l77 -29 5 -93 5 -93 55 71 c30 38 56 70 57 70 1 0 36 -13 78
-30 42 -16 80 -30 86 -30 5 0 -13 34 -41 76 l-51 75 55 69 c31 38 56 71 56 74
0 2 -39 -6 -87 -19 -49 -13 -90 -20 -93 -16 -3 5 -25 39 -50 77 l-45 68 -9
-77 c-4 -42 -11 -77 -15 -77 -3 1 -51 43 -105 95 l-99 93 66 143 c36 79 64
145 63 147 -2 1 -63 -32 -136 -73 -73 -41 -136 -75 -141 -75 -8 0 -77 61 -196
174 -24 22 -43 35 -43 30z"/>
<path d="M5006 3961 l-160 -199 -65 25 c-37 14 -142 54 -235 89 -92 35 -172
64 -177 64 -4 0 40 -73 99 -162 167 -253 175 -267 165 -281 -5 -6 -76 -94
-157 -195 -82 -101 -146 -186 -143 -189 3 -3 28 2 56 10 28 8 51 13 51 10 0
-4 -159 -303 -165 -311 -1 -1 -93 14 -204 33 -111 20 -207 35 -213 33 -6 -2
55 -72 136 -155 80 -83 146 -154 146 -159 0 -5 -45 -92 -100 -194 -54 -101
-97 -186 -95 -188 1 -2 36 13 76 34 41 20 129 63 196 95 l122 57 117 -124 c64
-69 115 -126 113 -128 -2 -2 -66 25 -142 61 -76 35 -140 63 -143 61 -2 -2 30
-65 71 -139 l74 -134 -72 -75 c-40 -41 -90 -94 -111 -117 l-38 -41 73 14 c194
37 241 45 244 42 1 -2 35 -63 75 -136 40 -73 74 -131 76 -129 3 2 13 70 23
151 11 81 21 150 24 153 3 2 71 17 151 31 80 15 146 30 146 33 0 3 -61 35
-135 69 -156 73 -144 52 -120 230 22 164 25 161 -56 75 -39 -41 -75 -75 -79
-75 -3 0 -15 66 -26 148 l-20 147 192 95 c106 52 193 98 193 101 1 3 -83 20
-186 38 -104 18 -199 36 -213 40 -24 7 -26 14 -51 192 -15 101 -25 186 -23
187 6 8 319 90 325 86 4 -2 69 -99 144 -214 76 -116 139 -209 140 -208 2 2 8
116 15 253 7 138 15 253 19 257 6 6 383 112 426 120 16 2 24 -8 42 -57 12 -33
22 -65 22 -72 1 -7 -62 -60 -139 -118 -77 -59 -140 -109 -140 -111 0 -2 80 -1
179 2 l178 7 20 -54 c11 -30 37 -105 59 -166 21 -62 41 -113 44 -113 3 0 28
75 55 168 l50 167 178 3 c97 1 177 6 177 10 -1 4 -65 51 -145 106 l-143 98 15
52 c8 28 30 102 50 164 19 63 32 116 29 119 -4 4 -84 -54 -271 -198 -6 -4 -74
37 -154 92 -79 55 -145 98 -147 96 -2 -2 7 -36 20 -75 14 -40 23 -72 22 -72
-10 0 -403 153 -409 160 -5 4 -3 116 3 248 7 132 11 244 9 250 -2 6 -76 -78
-163 -187z"/>
<path d="M7477 3803 c-2 -5 -21 -67 -42 -139 l-38 -132 -60 -6 c-33 -3 -103
-6 -155 -6 l-96 0 125 -86 c68 -47 125 -87 126 -88 2 -2 -78 -270 -82 -274 -1
-2 -88 39 -192 92 l-190 94 33 229 c19 125 34 230 34 233 0 3 -76 -71 -168
-163 l-168 -168 -207 102 c-114 56 -209 100 -211 98 -2 -2 45 -96 105 -208
l108 -204 -164 -171 c-90 -94 -163 -172 -162 -172 1 -1 101 15 222 37 121 21
225 38 232 39 6 0 60 -92 120 -204 59 -113 110 -202 113 -199 3 2 19 104 37
225 18 121 35 223 38 226 5 5 160 34 383 72 55 9 70 15 63 24 -7 9 20 34 99
94 61 45 113 82 117 82 5 0 59 -36 122 -80 63 -44 117 -78 119 -75 3 2 -17 65
-43 140 -26 74 -46 137 -44 139 2 1 54 40 114 86 61 46 115 87 120 92 6 5 -56
6 -145 2 l-155 -6 -49 141 c-26 77 -50 141 -52 141 -1 0 -5 -3 -7 -7z"/>
<path d="M8320 3764 c0 -29 -50 -397 -54 -402 -3 -2 -85 -20 -183 -38 -98 -19
-186 -37 -196 -42 -13 -5 28 -29 163 -91 99 -46 182 -87 185 -90 2 -4 -8 -94
-21 -200 -13 -107 -23 -196 -20 -198 2 -2 34 29 72 69 38 40 101 106 140 147
l71 74 183 -87 c101 -47 185 -85 186 -83 2 1 -42 83 -97 181 l-99 179 118 124
c148 158 168 183 144 177 -67 -15 -385 -75 -387 -72 -1 2 -46 82 -100 178
-103 185 -105 189 -105 174z"/>
<path d="M4035 3458 c-2 -7 -13 -43 -25 -80 l-21 -67 -87 -3 -87 -3 72 -52 71
-52 -24 -77 c-14 -42 -23 -78 -21 -80 2 -2 34 18 70 46 l67 50 70 -50 c38 -27
70 -46 70 -42 0 5 -11 41 -25 82 -16 47 -22 77 -16 84 6 7 35 30 65 51 31 22
56 42 56 45 0 3 -38 4 -84 2 l-84 -3 -27 80 c-27 82 -32 91 -40 69z"/>
<path d="M3531 3335 c-18 -33 -51 -90 -72 -126 l-38 -66 -138 27 c-76 16 -139
27 -140 27 -1 -1 41 -47 92 -102 52 -55 94 -104 95 -108 0 -4 -30 -60 -66
-123 -37 -63 -64 -117 -62 -119 2 -2 59 21 127 52 l124 57 99 -105 c95 -100
99 -103 94 -69 -17 118 -27 243 -20 250 5 4 62 31 127 60 71 32 113 56 105 60
-7 4 -67 17 -133 30 -66 13 -122 24 -124 26 -2 2 -11 67 -20 146 l-16 143 -34
-60z"/>
<path d="M9083 3145 c3 -11 11 -39 17 -63 6 -24 13 -49 16 -56 3 -8 -19 -29
-55 -52 -34 -21 -61 -42 -61 -46 0 -4 33 -8 73 -10 l72 -3 21 -74 21 -74 28
71 28 72 76 0 c85 1 85 -5 -3 65 l-38 30 26 69 c14 38 26 70 26 72 0 3 -29
-14 -65 -37 l-65 -41 -48 38 c-79 63 -76 61 -69 39z"/>
<path d="M5350 2900 c-47 -88 -89 -160 -95 -160 -5 0 -84 13 -175 30 -91 16
-169 30 -174 30 -4 0 49 -61 119 -135 l127 -134 -85 -158 c-46 -87 -83 -160
-81 -162 2 -2 77 31 165 75 l161 79 129 -133 c71 -73 129 -127 129 -119 0 14
-35 268 -45 328 -4 25 4 30 161 105 98 46 160 81 152 85 -7 4 -85 19 -173 34
-88 15 -163 31 -168 34 -4 4 -18 85 -32 180 -13 96 -26 175 -27 177 -2 2 -42
-69 -88 -156z"/>
<path d="M7943 2994 l-52 -45 -63 40 c-34 22 -64 38 -66 36 -2 -1 8 -31 22
-66 15 -34 26 -65 26 -69 0 -4 -25 -27 -55 -51 l-55 -44 77 -5 77 -5 25 -62
c13 -34 27 -60 31 -58 4 2 13 32 20 66 7 33 18 63 24 65 6 2 42 7 80 11 l68 8
-65 42 -66 41 13 44 c22 74 27 98 19 98 -5 0 -31 -21 -60 -46z"/>
<path d="M7375 2834 c-60 -51 -116 -93 -123 -93 -6 -1 -67 33 -133 75 -67 41
-122 74 -124 72 -2 -2 21 -66 51 -143 54 -136 54 -140 35 -155 -10 -8 -63 -51
-116 -95 -113 -93 -115 -91 75 -77 69 5 128 8 131 6 3 -1 29 -64 59 -138 29
-75 56 -136 59 -136 4 0 22 64 42 143 l35 142 51 6 c28 4 98 8 155 10 l103 4
33 -84 c29 -74 31 -85 18 -100 -8 -9 -87 -74 -175 -146 -88 -71 -160 -132
-160 -135 -1 -3 101 1 225 9 132 8 229 10 234 5 5 -5 43 -97 85 -204 42 -107
80 -198 84 -203 4 -4 31 87 61 202 29 116 56 215 60 221 4 7 95 17 226 26 120
8 223 16 227 17 5 1 -79 58 -187 126 -170 107 -196 127 -190 144 16 51 111
427 108 427 -3 0 -83 -65 -179 -145 -141 -118 -179 -144 -193 -136 -9 5 -96
59 -192 120 -96 60 -176 108 -178 106 -3 -2 8 -35 23 -72 63 -156 65 -164 53
-157 -26 16 -233 147 -237 150 -2 2 13 69 33 150 20 81 35 148 34 149 -2 1
-52 -39 -113 -91z"/>
<path d="M8890 2693 c-40 -54 -74 -99 -75 -100 -1 -2 -55 15 -120 37 -66 22
-120 40 -122 40 -1 0 29 -45 67 -99 39 -54 70 -103 70 -108 0 -5 -31 -52 -70
-103 -38 -51 -69 -95 -67 -96 2 -2 52 12 113 31 60 19 112 35 116 35 4 0 40
-46 80 -102 l73 -102 3 126 3 127 111 35 111 34 61 -50 c33 -28 65 -54 69 -58
4 -3 -6 -42 -22 -85 -17 -43 -29 -80 -28 -82 2 -1 33 18 70 42 36 25 70 45 74
45 5 0 35 -22 68 -50 33 -27 63 -50 66 -50 4 0 -4 37 -17 82 -13 45 -20 84
-16 87 5 3 37 24 70 46 34 22 62 43 62 48 0 4 -38 7 -84 7 l-83 0 -23 85 c-13
47 -24 84 -26 83 -1 -2 -16 -37 -32 -78 l-30 -75 -58 -3 c-49 -2 -83 7 -199
47 l-140 49 4 126 c2 69 1 126 -2 126 -2 0 -37 -44 -77 -97z"/>
<path d="M3702 2474 l-203 -155 -92 63 c-51 34 -146 100 -211 145 -66 46 -121
81 -123 79 -2 -1 22 -74 52 -160 30 -87 55 -162 55 -167 0 -5 -27 -9 -59 -9
l-59 0 -28 70 c-15 39 -29 68 -32 66 -2 -3 -12 -35 -21 -73 l-17 -68 -70 -8
c-38 -4 -73 -8 -77 -10 -5 -1 21 -21 56 -44 l65 -41 -19 -68 c-10 -38 -19 -72
-19 -77 0 -4 27 15 61 43 l60 50 30 -17 c16 -10 40 -27 54 -38 l24 -20 -122
-92 c-67 -51 -135 -104 -152 -118 l-30 -25 263 7 c144 3 262 4 262 1 0 -5 112
-322 152 -432 l21 -59 28 92 c15 51 30 99 34 108 4 13 23 0 85 -62 44 -44 80
-83 80 -87 0 -4 -31 -74 -70 -157 -38 -82 -70 -152 -70 -155 0 -2 56 26 124
64 68 38 138 76 154 84 l31 16 127 -120 c70 -66 129 -118 130 -117 1 1 -11 75
-28 164 -17 89 -28 168 -26 175 3 7 71 49 151 93 81 43 144 81 142 83 -2 2
-79 14 -172 26 l-168 22 -21 101 c-12 56 -24 120 -28 142 l-6 41 85 0 c52 0
84 4 80 10 -3 5 -98 72 -210 150 -113 77 -205 144 -205 147 0 3 32 114 71 245
39 132 69 241 67 243 -2 2 -95 -66 -206 -151z m-485 -289 l21 -65 -38 -30
c-21 -16 -42 -30 -48 -30 -5 0 -19 26 -31 57 l-22 57 43 37 c24 21 45 38 48
39 3 0 15 -29 27 -65z m753 -358 c0 -2 -27 -60 -59 -129 l-59 -124 -119 16
c-65 9 -118 20 -117 25 1 6 14 54 29 107 l28 97 91 4 c50 1 117 4 149 5 31 1
57 0 57 -1z"/>
<path d="M8630 2095 c0 -11 14 -99 30 -195 16 -96 30 -185 30 -197 0 -18 -31
-38 -190 -120 -135 -70 -185 -100 -172 -105 9 -4 101 -19 204 -34 103 -15 192
-30 198 -34 8 -5 77 -366 80 -425 1 -5 46 79 101 188 54 108 105 197 112 197
6 0 95 -14 197 -30 102 -16 194 -30 205 -30 14 0 -26 46 -135 155 l-155 156
95 185 c52 102 97 190 99 196 2 6 -85 -35 -194 -92 l-197 -102 -154 153 c-108
108 -154 148 -154 134z"/>
<path d="M8288 1931 l3 -79 -70 -27 c-39 -16 -69 -30 -67 -33 3 -2 35 -12 73
-21 l68 -17 10 -79 10 -79 43 66 43 65 67 -18 c37 -11 70 -18 74 -17 5 2 -12
28 -37 58 -25 30 -45 58 -45 63 0 4 15 31 33 60 18 29 37 58 41 64 8 14 10 14
-91 -26 l-53 -21 -47 60 c-27 32 -50 59 -53 59 -3 1 -4 -34 -2 -78z"/>
<path d="M9663 1877 l-30 -72 -89 2 -89 2 64 -58 63 -57 -31 -74 c-17 -40 -29
-75 -27 -77 3 -3 35 13 72 35 l68 41 46 -39 c26 -22 53 -46 60 -55 25 -30 27
-13 9 67 -13 63 -15 84 -6 90 7 5 41 25 77 45 l65 38 -89 10 -90 10 -16 77
c-9 43 -19 80 -21 83 -3 2 -19 -28 -36 -68z"/>
<path d="M2810 1569 c0 -2 9 -38 20 -79 11 -41 20 -80 20 -85 0 -6 -34 -31
-76 -55 l-75 -45 43 -7 c24 -3 64 -7 89 -7 l47 -1 16 -71 c9 -39 16 -78 16
-85 0 -32 17 -9 48 66 32 74 36 79 60 75 15 -2 56 -6 91 -10 l64 -5 -47 41
c-26 23 -57 50 -69 59 l-22 18 32 78 c18 43 31 80 29 82 -2 2 -34 -15 -70 -37
-37 -23 -70 -41 -75 -41 -4 0 -30 19 -57 42 -76 65 -84 71 -84 67z"/>
<path d="M9475 1448 c-3 -18 -14 -89 -26 -157 -11 -69 -22 -128 -25 -133 -3
-4 -17 -8 -32 -8 -15 -1 -88 -11 -162 -24 l-135 -22 143 -72 c79 -40 145 -79
148 -87 5 -12 -29 -260 -43 -310 -3 -11 50 34 116 100 l122 120 149 -77 c83
-42 150 -75 150 -72 0 3 -34 71 -77 151 l-76 146 116 115 c65 63 116 117 114
118 -1 2 -74 -8 -161 -22 -87 -14 -160 -23 -161 -22 -2 2 -35 67 -74 146 -39
78 -73 142 -76 142 -2 0 -7 -15 -10 -32z"/>
<path d="M3310 1079 c-31 -41 -49 -57 -60 -53 -44 18 -124 44 -127 41 -2 -2
15 -29 37 -60 22 -30 40 -58 40 -62 0 -4 -21 -33 -46 -66 -25 -32 -41 -59 -35
-59 5 0 38 9 73 20 34 11 64 20 65 20 1 0 21 -28 45 -62 l43 -61 3 44 c6 106
6 106 83 129 39 12 69 23 67 25 -2 2 -33 14 -68 27 l-65 23 -5 77 -5 77 -45
-60z"/>
<path d="M2661 903 c37 -128 41 -114 -51 -176 l-81 -55 99 -7 100 -7 22 -86
c21 -79 40 -124 40 -95 0 6 14 48 31 93 l31 81 100 -3 99 -3 -28 25 c-16 14
-51 43 -77 65 -46 38 -47 41 -36 70 47 120 58 155 47 149 -7 -4 -45 -29 -85
-56 l-72 -49 -74 61 c-41 33 -77 60 -80 60 -2 0 4 -30 15 -67z"/>
<path d="M10004 687 l-50 -152 -169 -5 -169 -5 132 -99 c73 -54 132 -99 132
-100 0 -1 -22 -69 -50 -151 -27 -82 -50 -153 -50 -157 0 -5 39 20 88 55 48 35
109 78 135 96 l48 33 128 -96 c70 -53 131 -96 133 -96 3 0 -16 71 -43 157 -26
87 -45 160 -40 163 4 3 65 46 135 95 l128 90 -167 5 -167 5 -49 154 c-26 84
-50 155 -51 157 -2 2 -26 -65 -54 -149z"/>
<path d="M2431 414 l-33 -86 -97 7 -96 7 30 -26 c17 -14 49 -40 72 -58 23 -18
43 -37 43 -43 0 -5 -14 -45 -31 -89 -16 -43 -29 -80 -27 -82 2 -2 38 20 80 47
l76 51 74 -61 c40 -33 74 -59 75 -57 1 1 -9 42 -22 91 -14 49 -24 90 -22 91 1
1 37 24 79 52 l77 50 -37 6 c-20 3 -63 6 -94 6 l-57 0 -10 37 c-6 20 -16 60
-22 90 -7 29 -15 53 -18 53 -3 0 -21 -39 -40 -86z"/>
</g>
</svg>
